<svg width="205" height="330" viewBox="0 0 205 330" fill="none" xmlns="http://www.w3.org/2000/svg">
<path d="M194.973 51.5242L195.347 2.26984L2.57537 0.481445L1.22873 183.646L44.937 183.991C44.937 183.991 57.0071 126.527 105.197 126.92C134.31 127.155 159.186 148.562 158.802 200.58C158.402 255.195 136.955 284.253 100.782 283.959C68.1255 283.7 50.0146 253.038 50.1238 237.678L0.773571 237.223C0.481629 274.301 30.8162 328.562 98.4614 329.114C174.687 329.711 203.488 267.798 204.051 200.92C204.46 146.095 180.24 83.7266 106.748 83.1043C86.4379 82.9514 61.7605 93.0375 50.9727 107.767L51.409 50.0663L194.973 51.5242Z" fill="#FFCBF8"/>
</svg>
