<svg width="166" height="171" fill="none" xmlns="http://www.w3.org/2000/svg"><path d="M116.571 7.621a18.63 18.63 0 00-1.123 1.73A82.314 82.314 0 0020.48 138.617a18.872 18.872 0 00-1.424 1.7 18.677 18.677 0 0030.1 22.118c.434-.598.833-1.221 1.194-1.866a82.318 82.318 0 00114.818-78.723A82.318 82.318 0 00145.35 31.33a18.672 18.672 0 10-28.783-23.705l.004-.003z" fill="#FAE4C0"/><path d="M95.769 61.514c9.069 0 16.421-7.352 16.421-16.42 0-9.07-7.352-16.422-16.421-16.422-9.07 0-16.421 7.352-16.421 16.421 0 9.07 7.352 16.421 16.42 16.421z" fill="#fff" stroke="#000" stroke-miterlimit="10"/><path d="M109.836 53.565a16.414 16.414 0 01-10.11 7.468 16.421 16.421 0 01-12.43-1.868l16.946-28.137a16.421 16.421 0 015.594 22.537z" fill="#000" stroke="#000" stroke-miterlimit="10"/><path d="M49.632 115.47c9.069 0 16.42-7.352 16.42-16.42 0-9.07-7.351-16.422-16.42-16.422-9.07 0-16.421 7.352-16.421 16.421 0 9.069 7.352 16.421 16.421 16.421z" fill="#fff" stroke="#000" stroke-miterlimit="10"/><path d="M63.47 107.886a16.424 16.424 0 01-22.677 5l17.675-27.678a16.42 16.42 0 015.003 22.678z" fill="#000" stroke="#000" stroke-miterlimit="10"/><path d="M94.585 67.307a16.814 16.814 0 01-8.9 29.763 16.813 16.813 0 01-12.328-3.686m69.661-72.024a10.946 10.946 0 01-15.227 2.436 10.95 10.95 0 01-2.558-15.208m-9.723 51.271a10.95 10.95 0 01-1.156-15.373 10.946 10.946 0 0115.362-1.288m-81.777 90.945a10.953 10.953 0 01-3.332-11.715 10.956 10.956 0 015.444-6.384 10.958 10.958 0 0112.094 1.437m-38.411 29.131a10.947 10.947 0 0117.425 13.257" stroke="#000" stroke-miterlimit="10"/><path d="M20.479 138.618s11.17-14.454 7.118-31.27C23.186 89.042 6.645 81.764 6.645 81.764s17.9-6.221 24.48-22.937c5.294-13.453-4.851-28.23-4.851-28.23s12.7 5.784 25.363-.882a19.734 19.734 0 0010.806-19.408s8.16 12.007 27.22 12.007c15.665 0 25.566-13.085 25.566-13.085s-59.623-27.373-98.41 27.033c-39.871 55.933 3.66 102.356 3.66 102.356z" fill="#000"/><path d="M32.786 77.67s-7.553 25.536 8.008 35.22m38.521-89.062s-7.553 25.536 8.008 35.22" stroke="#000" stroke-linecap="round" stroke-linejoin="round"/></svg>