<svg width="380" height="311" viewBox="0 0 380 311" fill="none" xmlns="http://www.w3.org/2000/svg">
<path d="M343.504 118.025C342.216 118.054 340.932 118.154 339.655 118.325C331.129 84.5368 311.405 54.6353 283.7 33.4981C255.996 12.361 221.946 1.23579 187.106 1.93752C152.266 2.63926 118.692 15.1265 91.8613 37.3621C65.0304 59.5976 46.5263 90.2692 39.3676 124.373C37.9895 124.232 36.6043 124.171 35.2191 124.192C25.9462 124.378 17.1269 128.24 10.7014 134.928C4.27583 141.617 0.770425 150.584 0.956247 159.857C1.14207 169.129 5.00389 177.949 11.6922 184.374C18.3806 190.8 27.3476 194.305 36.6205 194.12C38.0039 194.083 39.384 193.966 40.7537 193.769C49.2746 227.555 68.9921 257.458 96.6901 278.598C124.388 299.739 158.432 310.871 193.269 310.178C228.106 309.486 261.681 297.01 288.517 274.785C315.353 252.56 333.866 221.897 341.037 187.799C345.774 188.231 350.548 187.693 355.069 186.216C359.59 184.74 363.762 182.357 367.33 179.213C370.898 176.069 373.787 172.23 375.821 167.931C377.855 163.632 378.99 158.963 379.157 154.21C379.325 149.457 378.521 144.72 376.794 140.289C375.068 135.857 372.456 131.825 369.118 128.437C365.78 125.05 361.786 122.379 357.38 120.588C352.974 118.798 348.25 117.925 343.495 118.022L343.504 118.025Z" fill="#FAE4C0"/>
<path d="M239.71 148.476C250.038 161.956 269.338 164.512 282.818 154.184C296.298 143.857 298.853 124.557 288.526 111.077C278.198 97.5967 258.898 95.0411 245.418 105.369C231.938 115.696 229.383 134.996 239.71 148.476Z" fill="white"/>
<path fill-rule="evenodd" clip-rule="evenodd" d="M288.13 111.381C277.97 98.1201 258.984 95.606 245.723 105.766C232.463 115.925 229.949 134.911 240.108 148.172C250.268 161.433 269.254 163.947 282.515 153.787C295.776 143.628 298.29 124.642 288.13 111.381ZM245.115 104.972C258.814 94.4763 278.428 97.0735 288.924 110.773C299.419 124.472 296.822 144.086 283.123 154.581C269.424 165.077 249.81 162.48 239.314 148.78C228.819 135.081 231.416 115.467 245.115 104.972Z" fill="black"/>
<path d="M267.545 160.334C263.532 160.785 259.47 160.441 255.59 159.322C251.71 158.203 248.088 156.331 244.932 153.812C241.775 151.293 239.146 148.177 237.194 144.642C235.242 141.107 234.005 137.222 233.555 133.21L294.673 126.355C295.581 134.458 293.233 142.59 288.146 148.962C283.058 155.334 275.648 159.425 267.545 160.334V160.334Z" fill="black"/>
<path fill-rule="evenodd" clip-rule="evenodd" d="M295.114 125.802L295.17 126.299C296.092 134.534 293.706 142.798 288.536 149.274C283.366 155.75 275.835 159.907 267.601 160.831C263.522 161.289 259.394 160.94 255.451 159.803C251.508 158.665 247.827 156.763 244.62 154.203C241.412 151.643 238.74 148.477 236.756 144.884C234.772 141.292 233.515 137.344 233.057 133.265L233.002 132.768L295.114 125.802ZM267.489 159.837C275.46 158.943 282.75 154.919 287.755 148.65C292.655 142.512 294.972 134.714 294.228 126.908L234.111 133.65C234.598 137.422 235.792 141.069 237.631 144.401C239.552 147.878 242.138 150.943 245.243 153.421C248.348 155.899 251.911 157.741 255.728 158.842C259.545 159.943 263.541 160.281 267.489 159.837Z" fill="black"/>
<path d="M106.974 141.345C117.302 154.825 136.601 157.381 150.082 147.053C163.562 136.726 166.117 117.426 155.79 103.946C145.462 90.4656 126.162 87.91 112.682 98.2376C99.202 108.565 96.6465 127.865 106.974 141.345Z" fill="white"/>
<path fill-rule="evenodd" clip-rule="evenodd" d="M155.394 104.25C145.234 90.989 126.248 88.4749 112.987 98.6345C99.7263 108.794 97.2123 127.78 107.372 141.041C117.532 154.302 136.518 156.816 149.778 146.656C163.039 136.497 165.553 117.511 155.394 104.25ZM112.379 97.8407C126.078 87.3452 145.692 89.9424 156.187 103.642C166.683 117.341 164.086 136.955 150.387 147.45C136.687 157.946 117.074 155.348 106.578 141.649C96.0826 127.95 98.6797 108.336 112.379 97.8407Z" fill="black"/>
<path d="M134.006 153.279C125.881 153.974 117.812 151.413 111.575 146.159C105.338 140.906 101.444 133.39 100.749 125.265L162.016 120.018C162.361 124.041 161.91 128.092 160.689 131.941C159.468 135.79 157.501 139.361 154.9 142.45C152.299 145.538 149.115 148.084 145.53 149.942C141.945 151.8 138.029 152.934 134.006 153.279Z" fill="black"/>
<path fill-rule="evenodd" clip-rule="evenodd" d="M162.473 119.477L162.515 119.975C162.866 124.063 162.407 128.181 161.167 132.093C159.926 136.004 157.926 139.633 155.283 142.772C152.64 145.911 149.404 148.498 145.761 150.386C142.117 152.275 138.138 153.427 134.049 153.777C125.792 154.484 117.592 151.881 111.254 146.542C104.916 141.203 100.958 133.565 100.251 125.307L100.209 124.809L162.473 119.477ZM161.558 120.559L101.294 125.72C102.092 133.522 105.89 140.716 111.898 145.777C118.034 150.945 125.971 153.465 133.964 152.781C137.921 152.442 141.774 151.326 145.3 149.498C148.827 147.671 151.959 145.166 154.518 142.128C157.077 139.089 159.012 135.576 160.213 131.79C161.364 128.163 161.82 124.352 161.558 120.559Z" fill="black"/>
<path fill-rule="evenodd" clip-rule="evenodd" d="M226.547 165.083C228.214 161.372 229.133 157.368 229.253 153.302L230.253 153.331C230.129 157.529 229.18 161.662 227.459 165.493C225.738 169.324 223.279 172.778 220.223 175.659C217.167 178.54 213.574 180.79 209.648 182.282C205.722 183.774 201.541 184.479 197.343 184.355C193.145 184.231 189.012 183.281 185.182 181.56C181.351 179.839 177.896 177.381 175.015 174.325C172.134 171.269 169.884 167.675 168.392 163.75C166.9 159.824 166.196 155.643 166.319 151.445L167.319 151.474C167.199 155.541 167.881 159.591 169.327 163.394C170.772 167.197 172.952 170.679 175.743 173.639C178.534 176.599 181.88 178.981 185.591 180.648C189.302 182.315 193.306 183.235 197.372 183.355C201.439 183.475 205.49 182.793 209.293 181.348C213.096 179.902 216.577 177.722 219.537 174.931C222.498 172.141 224.879 168.794 226.547 165.083Z" fill="black"/>
<path fill-rule="evenodd" clip-rule="evenodd" d="M351.952 132.502C346.679 132.708 341.701 134.989 338.103 138.848C334.504 142.707 332.577 147.833 332.74 153.107C332.904 158.381 335.145 163.377 338.976 167.006C342.806 170.635 347.916 172.603 353.191 172.481L353.215 173.481C347.675 173.609 342.31 171.542 338.288 167.732C334.266 163.921 331.912 158.676 331.741 153.138C331.569 147.6 333.593 142.218 337.371 138.166C341.15 134.114 346.377 131.719 351.913 131.503L351.952 132.502Z" fill="black"/>
<path fill-rule="evenodd" clip-rule="evenodd" d="M305.096 178.056C305.326 172.787 303.466 167.64 299.919 163.736C296.373 159.832 291.428 157.486 286.16 157.211C280.893 156.935 275.73 158.751 271.796 162.264C267.861 165.777 265.474 170.702 265.153 175.966L264.154 175.905C264.491 170.378 266.998 165.206 271.13 161.518C275.261 157.83 280.682 155.923 286.213 156.212C291.743 156.501 296.936 158.964 300.659 163.063C304.383 167.163 306.337 172.567 306.095 178.1L305.096 178.056Z" fill="black"/>
<path fill-rule="evenodd" clip-rule="evenodd" d="M116.628 154.472C115.754 151.991 114.399 149.708 112.641 147.751C110.883 145.795 108.757 144.205 106.383 143.072C104.01 141.939 101.437 141.285 98.8102 141.147C96.1839 141.01 93.5562 141.392 91.0776 142.272C88.5991 143.151 86.3183 144.511 84.3659 146.273C82.4135 148.035 80.8279 150.165 79.6997 152.54C78.5715 154.916 77.9229 157.491 77.7911 160.117L76.7924 160.067C76.9308 157.309 77.6118 154.606 78.7964 152.111C79.981 149.617 81.6459 147.381 83.6959 145.53C85.7459 143.68 88.1408 142.253 90.7432 141.329C93.3457 140.406 96.1048 140.005 98.8624 140.149C101.62 140.293 104.322 140.98 106.814 142.17C109.306 143.359 111.539 145.029 113.385 147.083C115.231 149.137 116.653 151.535 117.571 154.139C118.489 156.744 118.884 159.503 118.734 162.261L117.736 162.207C117.879 159.58 117.502 156.952 116.628 154.472Z" fill="black"/>
<path fill-rule="evenodd" clip-rule="evenodd" d="M51.2587 158.744C51.2408 153.44 49.1167 148.36 45.3536 144.622C41.5906 140.885 36.4968 138.795 31.1929 138.813L31.1895 137.813C36.7586 137.794 42.1071 139.988 46.0584 143.913C50.0096 147.838 52.2399 153.171 52.2587 158.74C52.2774 164.309 50.0831 169.658 46.1584 173.609C42.2338 177.56 36.9002 179.791 31.331 179.809L31.3277 178.809C36.6316 178.791 41.7112 176.667 45.449 172.904C49.1867 169.141 51.2766 164.047 51.2587 158.744Z" fill="black"/>
<path d="M39.3672 124.371C39.3672 124.371 73.5713 124.514 93.9519 99.3421C116.138 71.9394 108.12 39.0653 108.12 39.0653C108.12 39.0653 137.751 58.5871 170.091 49.3333C196.115 41.8808 206.526 9.97397 206.526 9.97397C206.526 9.97397 212.391 35.4376 236.72 46.6686C243.393 49.9095 250.887 51.0666 258.227 49.9895C265.567 48.9123 272.412 45.6507 277.873 40.6291C277.873 40.6291 269.319 66.4326 291.024 94.7629C308.862 118.046 339.586 117.861 339.586 117.861C339.586 117.861 311.538 -3.30388 186.5 0.999938C57.9591 5.43142 39.3672 124.371 39.3672 124.371Z" fill="black"/>
<path fill-rule="evenodd" clip-rule="evenodd" d="M144.443 73.0812C144.542 73.339 144.413 73.6282 144.156 73.7271L143.977 73.2613C144.156 73.7271 144.156 73.727 144.156 73.7271L144.154 73.7277L144.148 73.7299L144.124 73.7392C144.103 73.7476 144.07 73.7603 144.027 73.7774C143.941 73.8115 143.812 73.863 143.644 73.9319C143.307 74.0695 142.812 74.2763 142.183 74.552C140.925 75.1034 139.128 75.93 136.982 77.0285C132.688 79.2264 127.001 82.5093 121.421 86.851C110.241 95.5495 99.6054 108.404 101.243 125.222C101.27 125.497 101.069 125.741 100.794 125.768C100.519 125.795 100.275 125.594 100.248 125.319C98.5594 107.98 109.539 94.8291 120.807 86.0618C126.45 81.6705 132.195 78.3553 136.526 76.1384C138.693 75.0295 140.507 74.1944 141.782 73.6361C142.419 73.3569 142.921 73.1468 143.265 73.0062C143.437 72.936 143.569 72.8831 143.659 72.8476C143.704 72.8298 143.738 72.8164 143.761 72.8074L143.788 72.7971L143.797 72.7937C143.797 72.7935 143.797 72.7934 143.977 73.2602L143.797 72.7937C144.054 72.6948 144.344 72.8234 144.443 73.0812Z" fill="black"/>
<path fill-rule="evenodd" clip-rule="evenodd" d="M277.459 80.9276C277.558 81.1855 277.429 81.4746 277.171 81.5735L276.993 81.1078C277.171 81.5735 277.171 81.5734 277.171 81.5735L277.17 81.5741L277.164 81.5763L277.14 81.5856C277.118 81.594 277.086 81.6067 277.043 81.6238C276.956 81.658 276.828 81.7095 276.659 81.7783C276.323 81.9159 275.828 82.1228 275.199 82.3985C273.94 82.9499 272.144 83.7764 269.997 84.875C265.703 87.0729 260.016 90.3557 254.436 94.6974C243.257 103.396 232.621 116.25 234.259 133.069C234.286 133.343 234.085 133.588 233.81 133.615C233.535 133.641 233.29 133.44 233.264 133.165C231.575 115.827 242.555 102.676 253.822 93.9082C259.466 89.517 265.21 86.2018 269.542 83.9848C271.708 82.8759 273.523 82.0409 274.797 81.4825C275.435 81.2033 275.937 80.9932 276.281 80.8527C276.453 80.7824 276.585 80.7295 276.675 80.694C276.72 80.6762 276.754 80.6629 276.777 80.6538L276.803 80.6435L276.812 80.6401C276.813 80.6399 276.813 80.6398 276.992 81.1067L276.812 80.6401C277.07 80.5412 277.36 80.6698 277.459 80.9276Z" fill="black"/>
</svg>
