<svg width="399" height="339" viewBox="0 0 399 339" fill="none" xmlns="http://www.w3.org/2000/svg">
<path d="M350.233 87.1581C348.887 87.5494 347.564 88.0151 346.269 88.5532C327.849 55.325 298.741 29.3339 263.691 14.8198C228.642 0.305648 189.721 -1.87504 153.277 8.63346C116.832 19.142 85.0155 41.7195 63.0165 72.6831C41.0174 103.647 30.1342 141.169 32.1423 179.13C26.813 179.97 21.7231 181.937 17.2097 184.899C12.6964 187.862 8.86291 191.752 5.96354 196.313C3.06418 200.873 1.16516 205.999 0.39243 211.351C-0.380302 216.703 -0.0090605 222.159 1.48148 227.356C2.97202 232.554 5.54778 237.374 9.03803 241.498C12.5283 245.621 16.8532 248.954 21.726 251.274C26.5988 253.595 31.9082 254.851 37.3019 254.958C42.6957 255.066 48.0505 254.022 53.0114 251.898C71.4218 285.132 100.524 311.132 135.57 325.657C170.615 340.181 209.537 342.373 245.985 331.874C282.433 321.375 314.257 298.805 336.264 267.846C358.271 236.887 369.164 199.367 367.165 161.405C372.263 160.529 377.13 158.62 381.468 155.795C385.805 152.97 389.523 149.288 392.393 144.974C395.263 140.66 397.226 135.804 398.16 130.704C399.095 125.605 398.983 120.367 397.83 115.312C396.678 110.257 394.509 105.491 391.456 101.304C388.404 97.118 384.532 93.5995 380.077 90.9639C375.622 88.3282 370.678 86.6309 365.547 85.9755C360.415 85.3201 355.204 85.7203 350.233 87.1519V87.1581Z" fill="#FAE4C0"/>
<path d="M234.998 166.41C253.479 166.41 268.461 151.392 268.461 132.866C268.461 114.341 253.479 99.3225 234.998 99.3225C216.517 99.3225 201.535 114.341 201.535 132.866C201.535 151.392 216.517 166.41 234.998 166.41Z" fill="white"/>
<path fill-rule="evenodd" clip-rule="evenodd" d="M234.998 99.8225C216.794 99.8225 202.035 114.616 202.035 132.866C202.035 151.117 216.794 165.91 234.998 165.91C253.202 165.91 267.961 151.117 267.961 132.866C267.961 114.616 253.202 99.8225 234.998 99.8225ZM201.035 132.866C201.035 114.066 216.24 98.8225 234.998 98.8225C253.756 98.8225 268.961 114.066 268.961 132.866C268.961 151.667 253.756 166.91 234.998 166.91C216.24 166.91 201.035 151.667 201.035 132.866Z" fill="black"/>
<path d="M209.169 111.54C211.962 108.14 215.397 105.324 219.276 103.254C223.155 101.184 227.403 99.9005 231.777 99.4764C236.151 99.0523 240.566 99.4959 244.769 100.782C248.972 102.068 252.881 104.172 256.273 106.973L213.723 158.758C206.873 153.102 202.545 144.95 201.691 136.094C200.836 127.239 203.527 118.407 209.169 111.54V111.54Z" fill="black"/>
<path fill-rule="evenodd" clip-rule="evenodd" d="M244.622 101.26C240.482 99.9933 236.134 99.5563 231.825 99.9741C227.517 100.392 223.332 101.656 219.511 103.695C215.69 105.734 212.307 108.508 209.555 111.858C203.997 118.622 201.347 127.323 202.188 136.046C203.014 144.603 207.132 152.493 213.658 158.05L255.567 107.043C252.317 104.441 248.603 102.479 244.622 101.26ZM208.783 111.223C203.056 118.192 200.326 127.156 201.193 136.143C202.06 145.129 206.452 153.403 213.405 159.143L213.791 159.462L256.976 106.905L256.591 106.587C253.148 103.744 249.181 101.61 244.915 100.304C240.649 98.9986 236.168 98.5482 231.729 98.9787C227.289 99.4092 222.978 100.712 219.041 102.813C215.103 104.914 211.618 107.772 208.783 111.223Z" fill="black"/>
<path d="M102.947 225.636C121.428 225.636 136.41 210.618 136.41 192.093C136.41 173.567 121.428 158.549 102.947 158.549C84.4661 158.549 69.4844 173.567 69.4844 192.093C69.4844 210.618 84.4661 225.636 102.947 225.636Z" fill="white"/>
<path fill-rule="evenodd" clip-rule="evenodd" d="M102.947 159.049C84.7433 159.049 69.9844 173.842 69.9844 192.093C69.9844 210.343 84.7433 225.136 102.947 225.136C121.151 225.136 135.91 210.343 135.91 192.093C135.91 173.842 121.151 159.049 102.947 159.049ZM68.9844 192.093C68.9844 173.292 84.1888 158.049 102.947 158.049C121.705 158.049 136.91 173.292 136.91 192.093C136.91 210.893 121.705 226.136 102.947 226.136C84.1888 226.136 68.9844 210.893 68.9844 192.093Z" fill="black"/>
<path d="M76.503 171.545C79.196 168.064 82.5467 165.148 86.3637 162.965C90.1806 160.782 94.3891 159.374 98.7489 158.822C103.109 158.269 107.534 158.583 111.773 159.745C116.012 160.907 119.981 162.895 123.454 165.594L82.4391 218.601C75.428 213.149 70.864 205.129 69.7508 196.305C68.6376 187.481 71.0665 178.574 76.503 171.545V171.545Z" fill="black"/>
<path fill-rule="evenodd" clip-rule="evenodd" d="M111.641 160.227C107.466 159.083 103.106 158.774 98.8118 159.318C94.5173 159.862 90.3718 161.249 86.6119 163.399C82.852 165.55 79.5514 168.422 76.8985 171.851C71.543 178.776 69.1503 187.549 70.2469 196.242C71.3226 204.769 75.669 212.534 82.3527 217.896L122.751 165.686C119.426 163.181 115.656 161.328 111.641 160.227ZM76.1075 171.239C70.5899 178.373 68.125 187.412 69.2548 196.368C70.3845 205.323 75.0163 213.463 82.1321 218.996L82.5278 219.303L124.155 165.506L123.761 165.2C120.236 162.46 116.208 160.442 111.906 159.263C107.603 158.083 103.111 157.765 98.6861 158.326C94.2609 158.887 89.9895 160.316 86.1154 162.531C82.2414 164.747 78.8407 167.706 76.1075 171.239Z" fill="black"/>
<path fill-rule="evenodd" clip-rule="evenodd" d="M214.168 198.802C217.177 190.396 216.748 181.138 212.977 173.047L213.883 172.625C217.766 180.954 218.207 190.485 215.11 199.139C212.013 207.793 205.629 214.869 197.349 218.826C189.069 222.782 179.565 223.298 170.907 220.26C162.25 217.222 155.141 210.877 151.131 202.608L152.031 202.172C155.926 210.204 162.83 216.366 171.238 219.316C179.646 222.266 188.877 221.766 196.918 217.923C204.96 214.081 211.16 207.208 214.168 198.802Z" fill="black"/>
<path fill-rule="evenodd" clip-rule="evenodd" d="M361.163 101.895C355.792 103.974 351.46 108.098 349.11 113.367C346.76 118.636 346.584 124.622 348.62 130.021C350.656 135.42 354.738 139.792 359.977 142.185C365.216 144.578 371.185 144.798 376.585 142.797L376.932 143.734C371.285 145.828 365.041 145.598 359.561 143.095C354.082 140.592 349.813 136.019 347.684 130.374C345.555 124.729 345.74 118.469 348.197 112.959C350.654 107.45 355.185 103.137 360.801 100.962L361.163 101.895Z" fill="black"/>
<path fill-rule="evenodd" clip-rule="evenodd" d="M41.6193 200.673C36.7458 197.551 30.8346 196.497 25.1862 197.743L24.9707 196.767C30.8789 195.463 37.0617 196.565 42.1588 199.831C47.2559 203.097 50.8497 208.258 52.15 214.18C53.4503 220.101 52.3508 226.298 49.0932 231.407C45.8355 236.516 40.6863 240.119 34.7782 241.423L34.5627 240.446C40.2112 239.2 45.1348 235.755 48.25 230.869C51.3653 225.984 52.4169 220.058 51.1733 214.394C49.9297 208.731 46.4928 203.796 41.6193 200.673Z" fill="black"/>
<path d="M32.1421 179.13C32.1421 179.13 95.2589 163.732 116.572 113.168C126.057 90.5534 130.441 66.1176 129.41 41.6073C129.352 40.2895 129.706 38.9864 130.423 37.8799C131.139 36.7735 132.183 35.919 133.407 35.4357C134.632 34.9525 135.976 34.8646 137.253 35.1844C138.53 35.5043 139.675 36.2157 140.529 37.2196C158.105 58.1411 191.592 90.2752 237.357 99.6391C306.98 113.881 346.279 88.5532 346.279 88.5532C346.279 88.5532 295.708 -24.8869 160.021 5.02269C18.5214 35.4357 32.1421 179.13 32.1421 179.13Z" fill="black"/>
<path fill-rule="evenodd" clip-rule="evenodd" d="M75.1937 85.2115C75.194 85.211 75.1942 85.2108 75.5842 85.5236C75.9743 85.8365 75.9742 85.8366 75.974 85.8368L75.9686 85.8436L75.9506 85.8662L75.8782 85.9574C75.8141 86.0386 75.7184 86.1603 75.5929 86.3214C75.342 86.6438 74.9722 87.1241 74.4978 87.7539C73.5489 89.0137 72.1819 90.8716 70.5118 93.2611C67.1717 98.0404 62.6204 104.945 57.7793 113.441C48.0945 130.438 37.2625 153.785 32.6342 179.219L31.6504 179.04C36.3064 153.453 47.1953 129.997 56.9104 112.946C61.7693 104.419 66.3377 97.4881 69.6922 92.6883C71.3695 90.2883 72.7436 88.4207 73.699 87.1523C74.1767 86.5181 74.5498 86.0336 74.8038 85.7072C74.9308 85.5441 75.028 85.4204 75.0937 85.3373L75.1683 85.2432L75.1874 85.2193L75.1937 85.2115Z" fill="black"/>
<path fill-rule="evenodd" clip-rule="evenodd" d="M32.4316 178.145L80.9945 119.474L81.7649 120.112L33.202 178.783L32.4316 178.145Z" fill="black"/>
<path fill-rule="evenodd" clip-rule="evenodd" d="M235.014 65.5129C235.013 65.5126 235.013 65.5124 235.254 65.0746C235.496 64.6367 235.496 64.6368 235.496 64.637L235.506 64.6426L235.54 64.6611C235.57 64.6775 235.615 64.7021 235.675 64.7347C235.796 64.7997 235.975 64.8964 236.211 65.0222C236.684 65.2737 237.385 65.6417 238.295 66.1063C240.113 67.0354 242.766 68.3509 246.1 69.8943C252.767 72.9814 262.152 76.9787 273.025 80.6197C294.791 87.9083 322.433 93.74 346.153 88.0673L346.386 89.0399C322.385 94.7799 294.519 88.872 272.708 81.568C261.792 77.9126 252.371 73.9003 245.679 70.8018C242.333 69.2524 239.669 67.9312 237.84 66.9968C236.925 66.5296 236.219 66.1591 235.742 65.9051C235.503 65.7781 235.321 65.6802 235.199 65.6139C235.138 65.5808 235.092 65.5556 235.06 65.5385L235.025 65.5192L235.014 65.5129Z" fill="black"/>
<path fill-rule="evenodd" clip-rule="evenodd" d="M345.62 89.3222L257.469 43.6714L257.929 42.7834L346.08 88.4342L345.62 89.3222Z" fill="black"/>
</svg>
