<svg width="197" height="166" fill="none" xmlns="http://www.w3.org/2000/svg"><path d="M172.524 42.668c-.66.191-1.309.42-1.945.683A82.312 82.312 0 0031.58 35.58a82.314 82.314 0 00-15.15 52.11 18.675 18.675 0 002.531 37.122 18.688 18.688 0 007.71-1.498 82.315 82.315 0 00154.162-44.3 18.667 18.667 0 0012.381-8.044 18.683 18.683 0 002.668-14.52 18.676 18.676 0 00-15.843-14.362 18.672 18.672 0 00-7.515.576v.003z" fill="#FAE4C0"/><path d="M115.976 81.465c9.069 0 16.421-7.352 16.421-16.421 0-9.07-7.352-16.421-16.421-16.421-9.069 0-16.421 7.352-16.421 16.42 0 9.07 7.352 16.421 16.421 16.421z" fill="#fff"/><path fill-rule="evenodd" clip-rule="evenodd" d="M115.976 49.123c-8.793 0-15.921 7.128-15.921 15.92 0 8.793 7.128 15.921 15.921 15.921s15.921-7.127 15.921-15.92-7.128-15.921-15.921-15.921zm-16.921 15.92c0-9.345 7.575-16.92 16.921-16.92 9.345 0 16.921 7.575 16.921 16.92 0 9.346-7.576 16.921-16.921 16.921-9.345 0-16.921-7.575-16.921-16.92z" fill="#000"/><path d="M103.301 54.604a16.418 16.418 0 0123.115-2.236l-20.88 25.35a16.42 16.42 0 01-2.235-23.114z" fill="#000"/><path fill-rule="evenodd" clip-rule="evenodd" d="M120.624 49.815a15.916 15.916 0 00-16.937 5.106 15.918 15.918 0 001.786 22.088l20.234-24.567a15.92 15.92 0 00-5.083-2.627zm-17.709 4.47a16.922 16.922 0 002.303 23.82l.386.317L127.12 52.3l-.386-.318a16.923 16.923 0 00-23.819 2.304z" fill="#000"/><path d="M51.175 110.458c9.069 0 16.42-7.352 16.42-16.42 0-9.07-7.351-16.421-16.42-16.421-9.07 0-16.421 7.351-16.421 16.42 0 9.069 7.352 16.421 16.42 16.421z" fill="#fff"/><path fill-rule="evenodd" clip-rule="evenodd" d="M51.175 78.117c-8.793 0-15.921 7.127-15.921 15.92s7.128 15.921 15.92 15.921c8.794 0 15.922-7.128 15.922-15.92 0-8.793-7.128-15.921-15.921-15.921zm-16.921 15.92c0-9.345 7.576-16.92 16.92-16.92 9.346 0 16.922 7.575 16.922 16.92 0 9.346-7.576 16.921-16.921 16.921-9.345 0-16.921-7.575-16.921-16.92z" fill="#000"/><path d="M38.197 83.978a16.423 16.423 0 0123.04-2.912L41.11 107.014a16.422 16.422 0 01-2.913-23.037z" fill="#000"/><path fill-rule="evenodd" clip-rule="evenodd" d="M55.373 78.684a15.921 15.921 0 00-14.347 27.623L60.531 81.16a15.922 15.922 0 00-5.158-2.476zm-17.571 4.988a16.92 16.92 0 003.002 23.738l.395.306 20.74-26.74-.395-.306a16.92 16.92 0 00-23.742 3.002zm67.713 13.564a16.306 16.306 0 00-.576-12.414l.906-.423a17.31 17.31 0 01-8.234 22.956 17.31 17.31 0 01-23.019-8.058l.9-.437a16.313 16.313 0 0030.023-1.624zM177.98 50.12a10.447 10.447 0 007.389 19.546l.346.938a11.446 11.446 0 01-14.679-6.69 11.447 11.447 0 016.584-14.727l.36.933zM20.943 98.453a10.447 10.447 0 00-7.873-1.4l-.215-.977a11.447 11.447 0 114.922 22.36l-.215-.977a10.446 10.446 0 003.381-19.006z" fill="#000"/><path d="M16.428 87.692S47.401 80.154 57.86 55.4a81.534 81.534 0 006.3-35.032 3.1 3.1 0 015.456-2.148c8.625 10.242 25.058 25.973 47.516 30.557 34.166 6.972 53.451-5.427 53.451-5.427S146.585-12.183 80 2.459C10 17.852 16.428 87.692 16.428 87.692z" fill="#000"/><path fill-rule="evenodd" clip-rule="evenodd" d="M37.357 41.555l.39.313.39.313-.002.003-.009.01-.035.044-.139.177c-.122.157-.303.391-.535.698a94.17 94.17 0 00-1.95 2.689 127.861 127.861 0 00-6.236 9.86c-4.745 8.306-10.046 19.707-12.31 32.12l-.983-.18c2.291-12.565 7.65-24.076 12.425-32.437a128.901 128.901 0 016.285-9.937 94.975 94.975 0 011.971-2.717 56.667 56.667 0 01.688-.894l.037-.046.01-.012.003-.003v-.001z" fill="#000"/><path fill-rule="evenodd" clip-rule="evenodd" d="M16.375 87.046l23.831-28.722.77.639-23.831 28.722-.77-.639zm99.486-54.751l.241-.438.241-.438.005.002.016.01.065.035.262.14c.231.122.573.301 1.018.528.89.454 2.189 1.096 3.821 1.85a130.521 130.521 0 0013.187 5.24c10.67 3.565 24.178 6.4 35.747 3.64l.232.973c-11.85 2.827-25.58-.084-36.295-3.664-5.368-1.793-10-3.761-13.29-5.28a112.165 112.165 0 01-3.856-1.868 69.563 69.563 0 01-1.301-.68l-.069-.037-.018-.01-.006-.003z" fill="#000"/><path fill-rule="evenodd" clip-rule="evenodd" d="M170.145 43.954l-43.258-22.348.459-.889 43.258 22.348-.459.889z" fill="#000"/></svg>