<svg width="238" height="170" viewBox="0 0 238 170" fill="none" xmlns="http://www.w3.org/2000/svg">
<path d="M81.3264 167.331C99.6422 158.752 98.2299 137.025 93.5878 119.844C97.6736 121.831 102.143 122.899 106.683 122.976C111.223 123.052 115.726 122.134 119.875 120.285C126.311 117.202 131.442 111.924 134.352 105.396C135.374 103.225 137.177 101.522 139.399 100.628C141.621 99.7341 144.099 99.7151 146.334 100.575C150.234 102.223 154.431 103.049 158.663 103C162.895 102.95 167.072 102.028 170.933 100.289C177.511 97.129 182.723 91.6861 185.605 84.9687C186.575 82.7465 188.328 80.9608 190.53 79.9531C192.731 78.9453 195.225 78.7863 197.536 79.5065C204.748 81.8868 212.589 81.4602 219.501 78.3116C236.562 70.3143 242.58 47.0803 232.951 26.4263C223.322 5.77236 201.669 -4.50862 184.608 3.4866C178.028 6.64415 172.815 12.0879 169.936 18.807C168.965 21.0292 167.211 22.8148 165.01 23.8228C162.809 24.8308 160.314 24.9904 158.003 24.2713C151.022 21.881 143.401 22.2079 136.65 25.1873C129.899 28.1666 124.512 33.5808 121.557 40.3557C120.536 42.5269 118.733 44.2305 116.511 45.1247C114.289 46.0188 111.812 46.0374 109.576 45.1765C105.676 43.528 101.48 42.7029 97.2474 42.7524C93.0152 42.802 88.8386 43.7252 84.9782 45.4645C72.4763 51.3231 65.939 65.3668 67.1087 80.5831C51.489 68.4166 28.7756 55.4862 13.27 67.3687C-12.2861 86.9502 14.9655 111.681 14.9655 111.681C14.9655 111.681 -10.9329 128.912 7.7965 149.304C22.3647 165.166 46.311 148.769 46.311 148.769C46.311 148.769 60.2169 177.224 81.3264 167.331Z" fill="black"/>
<path d="M68.4014 63.8254L55.7012 72.4614L95.4919 131.261L108.192 122.625L68.4014 63.8254Z" fill="white" stroke="black" stroke-miterlimit="10"/>
</svg>
