<svg width="117" height="83" fill="none" xmlns="http://www.w3.org/2000/svg"><path d="M39.42 81.648c8.988-4.2 8.295-14.836 6.017-23.247a15.312 15.312 0 0012.9.216 14.747 14.747 0 007.104-7.29 4.657 4.657 0 015.88-2.36 15.123 15.123 0 0012.071-.14 14.8 14.8 0 007.2-7.5 4.827 4.827 0 015.855-2.673 14.837 14.837 0 0010.779-.585c8.372-3.915 11.325-15.29 6.6-25.4-4.725-10.111-15.35-15.144-23.723-11.23a14.783 14.783 0 00-7.2 7.5 4.83 4.83 0 01-5.856 2.675 14.43 14.43 0 00-17.885 7.874 4.654 4.654 0 01-5.879 2.36 15.118 15.118 0 00-12.07.14c-6.136 2.869-9.344 9.744-8.77 17.193-7.665-5.956-18.81-12.286-26.42-6.47-12.54 9.587.832 21.694.832 21.694S-5.854 62.84 3.337 72.823c7.15 7.765 18.9-.262 18.9-.262s6.824 13.93 17.183 9.087z" fill="#000"/><path d="M33.076 30.977l-6.232 4.228L46.37 63.99l6.232-4.228-19.526-28.785z" fill="#fff"/><path fill-rule="evenodd" clip-rule="evenodd" d="M26.148 35.072l7.06-4.789 20.088 29.612-7.06 4.79-20.088-29.613zm1.39.266l18.964 27.958 5.405-3.667-18.965-27.957-5.405 3.666z" fill="#000"/></svg>