<svg width="80" height="37" viewBox="0 0 80 37" fill="none" xmlns="http://www.w3.org/2000/svg">
<path d="M15.1859 8.38239C15.1859 13.6069 12.3098 16.8809 7.65661 16.9041C3.58798 16.9041 0.735266 14.466 0.220842 10.5418L2.83973 10.1703C3.21386 12.7942 4.92081 14.257 7.65661 14.257C10.4859 14.2338 12.1695 12.562 12.4735 9.40407H4.6636V6.757H12.38C11.9357 4.08671 10.2521 2.64707 7.65661 2.64707C5.06111 2.67029 3.44768 3.90095 3.05018 6.15328L0.431288 5.68888C1.06263 2.15945 3.75166 0.0232196 7.65661 0C12.263 0 15.1859 3.27401 15.1859 8.38239Z" fill="black"/>
<path fill-rule="evenodd" clip-rule="evenodd" d="M48.8201 8.49826C48.8201 13.7189 45.692 17.0433 40.7663 17.0433C35.8173 17.0199 32.7125 13.6955 32.7359 8.49826C32.7359 3.3478 35.9107 0 40.7663 0C45.7153 0.0234109 48.7968 3.30098 48.8201 8.49826ZM35.3971 8.49826C35.3738 12.244 37.3114 14.3511 40.7663 14.3745C44.198 14.3745 46.1589 12.2675 46.1589 8.49826C46.1355 4.75247 44.2213 2.69229 40.7663 2.66887C37.3814 2.66887 35.3971 4.79929 35.3971 8.49826Z" fill="black"/>
<path d="M21.1156 16.7156H18.4544V0.327756H21.1156V10.0668L28.2123 0.327756H31.5039L26.158 7.70228L32.7411 16.7156H29.4262L24.5006 9.97316L21.1156 14.6086V16.7156Z" fill="black"/>
<path fill-rule="evenodd" clip-rule="evenodd" d="M48.5993 28.4549C48.5993 33.6756 45.4711 37 40.5455 37C35.5965 36.9766 32.4917 33.6522 32.515 28.4549C32.515 23.3045 35.6899 19.9567 40.5455 19.9567C45.4945 19.9801 48.5759 23.2576 48.5993 28.4549ZM35.1763 28.4549C35.1529 32.2007 37.0905 34.3077 40.5455 34.3311C43.9771 34.3311 45.938 32.2241 45.938 28.4549C45.9147 24.7091 44.0005 22.6489 40.5455 22.6255C37.1606 22.6255 35.1763 24.756 35.1763 28.4549Z" fill="black"/>
<path d="M20.8948 36.6722H18.2335V20.2844H20.8948V30.0235L27.9915 20.2844H31.283L25.9372 27.6589L32.5203 36.6722H29.2054L24.2797 29.9298L20.8948 34.5652V36.6722Z" fill="black"/>
<path d="M14.9953 36.7033H0V20.3155H2.66126V34.0345H6.167V20.3389H8.82826V34.0345H12.334V20.3155H14.9953V36.7033Z" fill="black"/>
<path d="M49.1671 36.4618H49.2372C53.7011 36.4618 55.7577 33.8125 55.7577 28.4437V22.6294H60.3619V36.368H63.0262V19.9567H53.0934V28.3499C53.0934 32.3355 52.0885 33.6953 49.2372 33.6953H49.1671V36.4618Z" fill="black"/>
<path d="M64.5049 36.368H67.3328L69.5063 30.0848H74.8583L77.1954 36.368H80L73.9702 19.9567H70.2308L64.5049 36.368ZM70.4412 27.4121L72.1005 22.6294L73.8767 27.4121H70.4412Z" fill="black"/>
</svg>
