<svg width="406" height="54" fill="none" xmlns="http://www.w3.org/2000/svg"><path d="M23.013 53.2c14.402-.072 23.303-10.32 23.303-26.672C46.316 10.54 37.27.293 23.013.293 10.928.365 2.605 7.052.651 18.098l8.106 1.454c1.23-7.05 6.223-10.902 14.256-10.974 8.033 0 13.244 4.505 14.619 12.863H13.75v8.285h24.171c-.94 9.884-6.151 15.117-14.908 15.19-8.467 0-13.75-4.58-14.908-12.791L0 33.286C1.592 45.57 10.421 53.2 23.013 53.2zm33.419-.59h8.237v-6.594l10.476-14.509L90.39 52.61h10.259L80.275 24.4 96.82 1.318H86.633L64.669 31.8V1.318h-8.237V52.61zm69.055 1.026c15.244 0 24.926-10.405 24.926-26.745-.072-16.267-9.609-26.525-24.926-26.599-15.028 0-24.854 10.479-24.854 26.599-.072 16.267 9.537 26.672 24.854 26.745zm0-8.353c-10.693-.074-16.69-6.668-16.618-18.392 0-11.577 6.142-18.245 16.618-18.245 10.693.073 16.617 6.521 16.689 18.245 0 11.797-6.069 18.392-16.689 18.392zm32.916 7.425h46.409V1.415h-8.236v42.94h-10.85V1.488h-8.237v42.865h-10.85V1.415h-8.236v51.293zm56.431-.098h8.236v-6.594l10.476-14.509 15.245 21.103h10.259L238.676 24.4l16.545-23.082h-10.187L223.07 31.8V1.318h-8.236V52.61zm69.054 1.026c15.245 0 24.926-10.405 24.926-26.745-.072-16.267-9.609-26.525-24.926-26.599-15.028 0-24.854 10.479-24.854 26.599-.072 16.267 9.537 26.672 24.854 26.745zm0-8.353c-10.693-.073-16.69-6.668-16.617-18.392 0-11.577 6.141-18.245 16.617-18.245 10.693.073 16.617 6.521 16.69 18.245 0 11.797-6.069 18.392-16.69 18.392zm26.686 6.669h.217c13.815 0 20.18-8.292 20.18-25.096V8.658h14.25v43h8.246V.292h-30.741v26.27c0 12.475-3.111 16.73-11.935 16.73h-.217v8.66zm47.47-.294h8.752l6.727-19.666h16.564l7.233 19.666H406L387.338.292h-11.573l-17.721 51.366zm18.372-28.031l5.136-14.97 5.497 14.97h-10.633z" fill="#000"/></svg>