<svg width="310" height="226" viewBox="0 0 310 226" fill="none" xmlns="http://www.w3.org/2000/svg">
<path fill-rule="evenodd" clip-rule="evenodd" d="M260.56 29.0986L256.899 1.03245L257.395 0.967773L261.056 29.0339L291.101 25.1148L291.165 25.6106L261.12 29.5297L270.019 97.7501L300.064 93.831L300.129 94.3268L270.084 98.2459L278.983 166.464L309.027 162.545L309.092 163.041L279.048 166.96L282.709 195.027L282.213 195.092L278.552 167.025L221.658 174.446L225.319 202.511L224.823 202.576L221.162 174.511L164.275 181.931L167.936 209.997L167.44 210.062L163.779 181.996L106.885 189.418L110.546 217.484L110.05 217.548L106.389 189.482L49.5025 196.903L53.1635 224.968L52.6677 225.032L49.0067 196.967L18.9579 200.887L18.8933 200.391L48.9421 196.472L40.0432 128.253L9.9947 132.173L9.93003 131.677L39.9786 127.757L31.0795 59.5369L1.03147 63.4565L0.966797 62.9607L31.0148 59.0411L27.3537 30.9752L27.8495 30.9105L31.5106 58.9764L88.3975 51.556L84.7363 23.489L85.2321 23.4243L88.8933 51.4913L145.787 44.0699L142.126 16.0047L142.622 15.9401L146.283 44.0052L203.17 36.5847L199.509 8.51859L200.005 8.45392L203.666 36.5201L260.56 29.0986ZM260.625 29.5944L203.73 37.0159L212.63 105.236L269.524 97.8148L260.625 29.5944ZM269.588 98.3106L212.694 105.732L221.593 173.951L278.487 166.529L269.588 98.3106ZM221.097 174.015L212.198 105.797L155.312 113.217L164.21 181.436L221.097 174.015ZM163.715 181.5L154.816 113.282L97.9216 120.703L106.82 188.922L163.715 181.5ZM106.325 188.986L97.4258 120.768L40.539 128.188L49.4379 196.407L106.325 188.986ZM40.4744 127.693L97.3611 120.272L88.4621 52.0518L31.5753 59.4722L40.4744 127.693ZM88.9579 51.9871L97.8569 120.208L154.751 112.786L145.852 44.5657L88.9579 51.9871ZM146.348 44.501L155.247 112.721L212.134 105.301L203.235 37.0805L146.348 44.501Z" fill="black"/>
</svg>
