<svg width="220" height="161" viewBox="0 0 220 161" fill="none" xmlns="http://www.w3.org/2000/svg">
<path fill-rule="evenodd" clip-rule="evenodd" d="M200.538 138.78L197.948 118.93L157.711 124.178L160.3 144.028L159.804 144.092L157.215 124.243L116.977 129.492L119.567 149.341L119.071 149.406L116.482 129.556L76.2421 134.805L78.8314 154.655L78.3356 154.72L75.7463 134.87L35.5097 140.119L38.099 159.968L37.6032 160.032L35.0139 140.183L13.7571 142.956L13.6924 142.46L34.9493 139.687L28.6515 91.4084L7.39475 94.1812L7.33008 93.6854L28.5868 90.9126L22.2888 42.6323L1.03245 45.405L0.967773 44.9092L22.2241 42.1365L19.6348 22.2864L20.1306 22.2217L22.7199 42.0718L62.9566 36.8232L60.3672 16.9726L60.863 16.908L63.4524 36.7585L103.692 31.5096L101.103 11.6601L101.598 11.5955L104.188 31.4449L144.425 26.1962L141.836 6.34617L142.332 6.28149L144.921 26.1315L185.159 20.8828L182.569 1.03245L183.065 0.967773L185.655 20.8182L206.911 18.0454L206.976 18.5412L185.719 21.314L192.017 69.5943L213.273 66.8215L213.338 67.3173L192.082 70.0901L198.38 118.369L219.636 115.596L219.7 116.092L198.444 118.865L201.034 138.715L200.538 138.78ZM144.49 26.692L104.252 31.9407L110.55 80.221L150.788 74.9723L144.49 26.692ZM151.284 74.9076L144.986 26.6273L185.223 21.3786L191.521 69.6589L151.284 74.9076ZM150.853 75.4681L110.615 80.7168L116.913 128.996L157.15 123.747L150.853 75.4681ZM157.646 123.683L151.348 75.4034L191.586 70.1547L197.884 118.434L157.646 123.683ZM35.4451 139.623L75.6816 134.374L69.3839 86.0951L29.1473 91.3437L35.4451 139.623ZM29.0826 90.8479L69.3192 85.5993L63.0213 37.319L22.7846 42.5676L29.0826 90.8479ZM69.815 85.5347L63.5171 37.2543L103.757 32.0054L110.054 80.2857L69.815 85.5347ZM76.1774 134.31L69.8796 86.0305L110.119 80.7815L116.417 129.061L76.1774 134.31Z" fill="black"/>
</svg>
