<svg width="370" height="378" viewBox="0 0 370 378" fill="none" xmlns="http://www.w3.org/2000/svg">
<path d="M0.578125 43.2684C0.578125 43.2684 36.7928 -12.4887 104.454 4.26687C176.192 22.0999 193.222 97.8881 183.408 137.482C175.098 171.011 146.843 183.435 117.382 176.105C110.96 174.555 104.915 171.732 99.604 167.803C94.2933 163.874 89.825 158.92 86.4637 153.233C83.1024 147.546 80.9164 141.243 80.0354 134.696C79.1544 128.149 79.5962 121.492 81.3345 115.118C92.5476 69.9805 159.739 50.1143 218.845 83.5327C280.656 118.443 291.623 188.898 281.412 237.312C271.906 282.629 237.738 307.578 196.527 293.647C152.889 278.844 148.189 225.762 175.813 194.036C216.765 146.989 296.237 168.826 334.257 211.777C387.921 272.756 342.817 339.77 342.817 339.77" stroke="black" stroke-width="0.5" stroke-miterlimit="10"/>
<path d="M331.299 369.521C343.146 374.009 356.389 368.044 360.877 356.197C365.365 344.35 359.399 331.108 347.552 326.62C335.705 322.132 322.463 328.097 317.975 339.944C313.487 351.791 319.452 365.033 331.299 369.521Z" fill="#FFE576"/>
</svg>
