<svg width="173" height="105" viewBox="0 0 173 105" fill="none" xmlns="http://www.w3.org/2000/svg">
<path fill-rule="evenodd" clip-rule="evenodd" d="M65.6499 12.8921C57.866 5.22034 46.8335 -0.105915 32.8881 1.55419C19.742 3.13105 11.8356 10.0855 7.21018 16.6482C4.89617 19.9314 3.40364 23.1167 2.48984 25.4808C2.03303 26.6627 1.72112 27.6386 1.52366 28.318C1.42493 28.6577 1.35483 28.9231 1.30955 29.1031C1.28691 29.193 1.27047 29.2616 1.25976 29.3074L1.24794 29.3588L1.24514 29.3713L1.2445 29.3742L1.00005 29.3218C0.755746 29.2688 0.755859 29.2682 0.755859 29.2682L0.756097 29.2671L0.75695 29.2633L0.760182 29.2488L0.772907 29.1935C0.784234 29.1451 0.801328 29.0738 0.824668 28.9811C0.871349 28.7956 0.943022 28.5242 1.04353 28.1784C1.24453 27.4869 1.56092 26.4972 2.02346 25.3006C2.94836 22.9077 4.45872 19.6842 6.80149 16.3602C11.4896 9.70847 19.5123 2.65502 32.8285 1.05775C46.9489 -0.623254 58.1271 4.77566 66.0009 12.536C66.5434 13.0707 67.0704 13.6167 67.5815 14.1725C72.8438 13.1557 78.574 12.99 84.5342 13.9057C101.312 16.4757 112.883 26.6644 119.936 38.5127C128.172 38.6037 136.441 40.5719 143.251 44.1526C157.057 51.4636 162.193 62.691 163.872 72.0826C164.711 76.7756 164.687 81.0105 164.454 84.0721C164.337 85.6032 164.168 86.8418 164.028 87.6986C163.958 88.127 163.895 88.4601 163.85 88.6867C163.827 88.7999 163.808 88.8866 163.796 88.9453C163.789 88.9746 163.784 88.9969 163.781 89.012L163.777 89.0294L163.776 89.0352C163.776 89.0352 163.775 89.0358 163.532 88.9787C163.289 88.9216 163.289 88.9215 163.289 88.9215L163.29 88.9171L163.293 88.9017C163.295 88.8946 163.297 88.8856 163.299 88.8748C163.302 88.8645 163.304 88.8525 163.307 88.8387C163.319 88.7827 163.337 88.6987 163.359 88.5882C163.404 88.3672 163.466 88.04 163.535 87.6179C163.673 86.7734 163.84 85.5492 163.955 84.0341C164.186 81.0032 164.21 76.812 163.38 72.1706C161.722 62.8934 156.658 51.8182 143.018 44.5951C136.363 41.0961 128.291 39.1512 120.233 39.0168C124.345 46.0796 126.868 53.6978 127.945 60.6237C129.322 69.4175 127.793 77.2463 123.804 82.9594C119.81 88.6779 113.37 92.2497 104.987 92.553C96.0825 92.8656 89.38 88.3791 85.6167 81.9125C81.8574 75.453 81.0287 67.0179 83.8441 59.4061C88.0176 48.1166 98.0177 41.7429 109.379 39.4719C112.624 38.8233 115.982 38.5085 119.353 38.5094C112.347 26.877 100.931 16.9232 84.4584 14.4C78.6669 13.5101 73.0988 13.6517 67.9759 14.6066C74.6357 22.0299 78.5288 31.0881 79.382 38.2131C80.1746 44.8324 78.4465 50.2505 75.0462 54.187C71.649 58.1201 66.601 60.5534 60.7874 61.2444C58.2486 61.564 55.6713 61.3709 53.2084 60.6766C50.7452 59.9822 48.4464 58.8005 46.4481 57.2016C44.4498 55.6026 42.7927 53.6189 41.5749 51.368C40.3576 49.1179 39.6041 46.6464 39.3589 44.0999C38.2938 35.1552 43.1675 26.6092 51.497 20.8076C55.8362 17.7852 61.1192 15.502 67.0065 14.2873C66.5659 13.8146 66.1137 13.3492 65.6499 12.8921ZM67.4021 14.7172C61.4604 15.9027 56.1365 18.1854 51.7828 21.2178C43.5576 26.9468 38.8171 35.3311 39.8557 44.0435L39.8564 44.0492C40.0949 46.5301 40.8287 48.938 42.0147 51.1301C43.2006 53.3222 44.8144 55.254 46.7605 56.8112C48.7065 58.3683 50.9452 59.5191 53.3441 60.1953C55.7429 60.8716 58.2532 61.0596 60.726 60.7482L60.7277 60.748C66.4409 60.069 71.3661 57.6827 74.6678 53.8602C77.9667 50.041 79.6632 44.7673 78.8855 38.2725C78.0368 31.1842 74.1203 22.1094 67.4021 14.7172ZM119.651 39.0103C116.214 38.9902 112.785 39.3009 109.477 39.9622C98.2306 42.2102 88.4091 48.4996 84.3131 59.5794C81.5488 67.053 82.3656 75.3322 86.0488 81.661C89.728 87.9828 96.2651 92.3588 104.969 92.0533C113.208 91.7552 119.498 88.2521 123.394 82.6731C127.293 77.0889 128.813 69.398 127.451 60.7008C126.368 53.7365 123.816 46.0807 119.651 39.0103Z" fill="black"/>
<path d="M163.444 105C168.288 105 172.215 101.073 172.215 96.2294C172.215 91.3855 168.288 87.4587 163.444 87.4587C158.601 87.4587 154.674 91.3855 154.674 96.2294C154.674 101.073 158.601 105 163.444 105Z" fill="#FFE576"/>
</svg>
