<svg width="123" height="80" fill="none" xmlns="http://www.w3.org/2000/svg"><path d="M103.776 21.495c-9.189-3.743-16.522 3.989-21.149 11.374a15.309 15.309 0 00-8.6-9.614 14.76 14.76 0 00-10.176-.265 4.654 4.654 0 01-5.725-2.711 15.128 15.128 0 00-8.3-8.765 14.793 14.793 0 00-10.393-.19 4.828 4.828 0 01-5.939-2.481 14.844 14.844 0 00-7.752-7.514C17.183-2.157 6.83 3.4 2.617 13.743c-4.213 10.342-.688 21.553 7.871 25.039a14.787 14.787 0 0010.393.19 4.828 4.828 0 015.94 2.482 14.428 14.428 0 0017.927 7.778 4.655 4.655 0 015.725 2.712 15.123 15.123 0 008.3 8.764c6.271 2.555 13.5.239 18.573-5.242.836 9.67 3.76 22.15 13.2 23.785 15.553 2.693 15.356-15.345 15.356-15.345s13.119 3.352 15.907-9.928c2.4-11.416-13.032-13.7-13.032-13.7s5.59-14.47-5.001-18.783z" fill="#000"/><path d="M85.912 27.777l-7.357-1.606-7.419 33.983 7.358 1.606 7.418-33.983z" fill="#fff"/><path fill-rule="evenodd" clip-rule="evenodd" d="M78.172 25.576l8.335 1.82-7.632 34.96-8.335-1.82 7.632-34.96zm.764 1.19L71.73 59.772l6.38 1.393 7.205-33.006-6.38-1.393z" fill="#000"/></svg>