<svg width="248" height="162" viewBox="0 0 248 162" fill="none" xmlns="http://www.w3.org/2000/svg">
<path d="M210.732 43.3191C192.007 35.6732 177.064 51.4676 167.635 66.5531C166.315 62.1985 164.063 58.185 161.037 54.793C158.01 51.401 154.281 48.7122 150.11 46.9143C143.48 44.2745 136.131 44.0826 129.373 46.373C127.09 47.097 124.619 46.9285 122.455 45.9013C120.291 44.8741 118.594 43.0642 117.707 40.8352C116.265 36.8468 114.019 33.1988 111.109 30.1185C108.199 27.0381 104.687 24.5913 100.793 22.9307C94.0126 20.2374 86.4881 20.0996 79.6141 22.5427C77.3281 23.3375 74.8301 23.26 72.5975 22.3251C70.3649 21.3902 68.5542 19.6634 67.5116 17.4746C64.3544 10.5521 58.7155 5.073 51.7146 2.12553C34.2731 -4.9954 13.1758 6.35806 4.59052 27.4839C-3.99473 48.6097 3.18846 71.5107 20.63 78.6316C27.4099 81.3267 34.9348 81.4654 41.8088 79.0219C44.0951 78.2265 46.5936 78.3036 48.8267 79.2386C51.0598 80.1735 52.8707 81.9006 53.9134 84.0898C56.9042 90.849 62.3203 96.2345 69.0873 99.1776C75.8543 102.121 83.4777 102.406 90.445 99.9781C92.7281 99.2552 95.1995 99.4245 97.3633 100.452C99.5271 101.48 101.223 103.289 102.111 105.518C103.553 109.506 105.799 113.154 108.709 116.234C111.619 119.314 115.131 121.76 119.025 123.42C131.804 128.64 146.535 123.909 156.873 112.712C158.577 132.468 164.535 157.961 183.772 161.299C215.466 166.8 215.065 129.953 215.065 129.953C215.065 129.953 241.799 136.8 247.48 109.673C252.371 86.3532 220.923 81.6876 220.923 81.6876C220.923 81.6876 232.315 52.1314 210.732 43.3191Z" fill="black"/>
<path d="M174.33 56.1522L159.336 52.8713L144.219 122.289L159.213 125.57L174.33 56.1522Z" fill="white" stroke="black" stroke-miterlimit="10"/>
</svg>
