<svg width="60" height="291" viewBox="0 0 60 291" fill="none" xmlns="http://www.w3.org/2000/svg">
<path d="M59.382 0.955662L0.494141 0.876221L0.103204 290.668L58.991 290.747L59.382 0.955662Z" fill="#FFE576"/>
<path d="M59.1398 18.1376L35.3358 18.1058" stroke="black" stroke-width="0.5" stroke-miterlimit="10"/>
<path d="M59.0538 81.9948L35.2499 81.963" stroke="black" stroke-width="0.5" stroke-miterlimit="10"/>
<path d="M58.9679 145.851L35.1639 145.819" stroke="black" stroke-width="0.5" stroke-miterlimit="10"/>
<path d="M58.882 209.708L35.078 209.676" stroke="black" stroke-width="0.5" stroke-miterlimit="10"/>
<path d="M58.796 273.566L34.9932 273.533" stroke="black" stroke-width="0.5" stroke-miterlimit="10"/>
<path d="M59.3498 30.9714L46.863 30.9552" stroke="black" stroke-width="0.5" stroke-miterlimit="10"/>
<path d="M59.3322 43.7878L46.8454 43.7716" stroke="black" stroke-width="0.5" stroke-miterlimit="10"/>
<path d="M59.3146 56.6042L46.8278 56.588" stroke="black" stroke-width="0.5" stroke-miterlimit="10"/>
<path d="M59.297 69.4198L46.8103 69.4037" stroke="black" stroke-width="0.5" stroke-miterlimit="10"/>
<path d="M59.2644 94.5425L46.779 94.5275" stroke="black" stroke-width="0.5" stroke-miterlimit="10"/>
<path d="M59.2448 107.358L46.7595 107.343" stroke="black" stroke-width="0.5" stroke-miterlimit="10"/>
<path d="M59.2286 120.175L46.7419 120.159" stroke="black" stroke-width="0.5" stroke-miterlimit="10"/>
<path d="M59.2131 132.991L46.7263 132.975" stroke="black" stroke-width="0.5" stroke-miterlimit="10"/>
<path d="M59.1779 158.51L46.6923 158.493" stroke="black" stroke-width="0.5" stroke-miterlimit="10"/>
<path d="M59.1603 171.326L46.6747 171.309" stroke="black" stroke-width="0.5" stroke-miterlimit="10"/>
<path d="M59.1427 184.142L46.6571 184.125" stroke="black" stroke-width="0.5" stroke-miterlimit="10"/>
<path d="M59.1251 196.958L46.6395 196.94" stroke="black" stroke-width="0.5" stroke-miterlimit="10"/>
<path d="M59.0939 220.5L46.6072 220.484" stroke="black" stroke-width="0.5" stroke-miterlimit="10"/>
<path d="M59.0769 233.316L46.5915 233.301" stroke="black" stroke-width="0.5" stroke-miterlimit="10"/>
<path d="M59.0593 246.132L46.5739 246.117" stroke="black" stroke-width="0.5" stroke-miterlimit="10"/>
<path d="M59.0431 258.948L46.5564 258.932" stroke="black" stroke-width="0.5" stroke-miterlimit="10"/>
</svg>
